<?xml version="1.0" encoding="UTF-8" standalone="no"?>
<svg
   width="1080"
   height="1080"
   viewBox="0 0 1080 1080"
   version="1.1"
   id="svg16"
   xmlns="http://www.w3.org/2000/svg"
   xmlns:svg="http://www.w3.org/2000/svg">
  <defs
     id="defs20" />
  <title
     id="title2">04-mitte-data</title>
  <rect
     width="1080"
     height="1080"
     fill="#ffffff"
     id="rect4" />
  <rect
     x="0"
     y="0"
     width="1080"
     height="1080"
     rx="0"
     fill="#000000"
     stroke="none"
     stroke-width="0"
     opacity="1"
     id="rect6" />
  <g
     aria-label="MITTE"
     id="text8"
     style="font-size:20px;font-family:'Nimbus Mono PS';letter-spacing:2;opacity:1;fill:#ffffff">
    <path
       d="m 78.6,106.68 3.12,-6.9 v 9.2 h -1.38 c -0.42,0 -0.64,0.18 -0.64,0.5 0,0.34 0.24,0.52 0.64,0.52 h 3 c 0.42,0 0.64,-0.18 0.64,-0.52 0,-0.32 -0.22,-0.5 -0.64,-0.5 h -0.58 v -9.22 h 0.4 c 0.42,0 0.64,-0.18 0.64,-0.52 0,-0.34 -0.22,-0.5 -0.64,-0.5 H 81.08 L 78.06,105.42 75,98.74 h -2.06 c -0.42,0 -0.64,0.18 -0.64,0.5 0,0.34 0.22,0.52 0.64,0.52 h 0.4 v 9.22 h -0.58 c -0.42,0 -0.64,0.18 -0.64,0.5 0,0.34 0.24,0.52 0.64,0.52 h 3 c 0.42,0 0.66,-0.18 0.66,-0.52 0,-0.32 -0.22,-0.5 -0.66,-0.5 H 74.38 V 99.8 l 3.16,6.88 z"
       id="path22" />
    <path
       d="m 92.520008,99.76 h 2.68 c 0.42,0 0.66,-0.18 0.66,-0.52 0,-0.34 -0.22,-0.5 -0.66,-0.5 h -6.4 c -0.42,0 -0.64,0.16 -0.64,0.5 0,0.34 0.22,0.52 0.64,0.52 h 2.68 v 9.22 h -2.68 c -0.42,0 -0.64,0.18 -0.64,0.5 0,0.34 0.22,0.52 0.64,0.52 h 6.4 c 0.42,0 0.66,-0.18 0.66,-0.52 0,-0.32 -0.22,-0.5 -0.66,-0.5 h -2.68 z"
       id="path24" />
    <path
       d="m 106.54002,108.98 v -9.22 h 3.1 v 1.32 c 0,0.38 0.22,0.66 0.54,0.66 0.34,0 0.5,-0.2 0.5,-0.66 v -2.34 h -9.34 v 2.34 c 0,0.44 0.18,0.66 0.52,0.66 0.34,0 0.52,-0.22 0.52,-0.66 v -1.32 h 3.12 v 9.22 h -1.98 c -0.44,0 -0.66,0.18 -0.66,0.5 0,0.34 0.24,0.52 0.66,0.52 h 5 c 0.42,0 0.66,-0.18 0.66,-0.52 0,-0.32 -0.22,-0.5 -0.66,-0.5 z"
       id="path26" />
    <path
       d="m 120.54002,108.98 v -9.22 h 3.1 v 1.32 c 0,0.38 0.22,0.66 0.54,0.66 0.34,0 0.5,-0.2 0.5,-0.66 v -2.34 h -9.34 v 2.34 c 0,0.44 0.18,0.66 0.52,0.66 0.34,0 0.52,-0.22 0.52,-0.66 v -1.32 h 3.12 v 9.22 h -1.98 c -0.44,0 -0.66,0.18 -0.66,0.5 0,0.34 0.24,0.52 0.66,0.52 h 5 c 0.42,0 0.66,-0.18 0.66,-0.52 0,-0.32 -0.22,-0.5 -0.66,-0.5 z"
       id="path28" />
    <path
       d="m 131.42003,104.68 h 2.68 v 0.78 c 0,0.4 0.18,0.62 0.52,0.62 0.34,0 0.52,-0.2 0.52,-0.62 v -2.58 c 0,-0.42 -0.18,-0.64 -0.52,-0.64 -0.34,0 -0.52,0.22 -0.52,0.64 v 0.78 h -2.68 v -3.9 h 5.64 v 1.82 c 0,0.42 0.18,0.64 0.52,0.64 0.34,0 0.52,-0.22 0.52,-0.64 v -2.84 h -8.7 c -0.42,0 -0.64,0.16 -0.64,0.5 0,0.34 0.22,0.52 0.64,0.52 h 0.98 v 9.22 h -0.98 c -0.42,0 -0.64,0.18 -0.64,0.5 0,0.34 0.22,0.52 0.64,0.52 h 9.12 v -3.24 c 0,-0.42 -0.18,-0.64 -0.52,-0.64 -0.34,0 -0.52,0.22 -0.52,0.64 v 2.22 h -6.06 z"
       id="path30" />
  </g>
  <g
     aria-label="19:42"
     id="text10"
     style="font-weight:bold;font-size:220px;font-family:'Nimbus Sans';letter-spacing:-10;opacity:1;fill:#ffffff">
    <path
       d="M 124.36,442.42 V 550 h 30.8 V 394.02 H 134.7 c -4.84,18.48 -20.9,27.94 -47.74,27.94 v 20.46 z"
       id="path33" />
    <path
       d="m 192.67995,513.7 c 0.66,23.98 20.9,41.58 47.74,41.58 20.02,0 35.2,-8.36 44.44,-24.2 8.14,-13.86 12.98,-37.4 12.98,-62.48 0,-22.88 -3.52,-40.48 -10.78,-52.36 -9.9,-16.72 -25.3,-25.52 -44,-25.52 -31.24,0 -52.58,22.44 -52.58,55 0,32.12 18.92,54.12 46.64,54.12 7.92,0 15.4,-2.2 20.24,-5.72 2.86,-1.98 4.62,-3.96 9.68,-9.68 0,30.14 -8.36,44.44 -25.74,44.44 -11,0 -18.26,-5.94 -18.92,-15.18 z m 49.5,-97.9 c 14.96,0 24.2,11.44 24.2,29.92 0,17.16 -9.46,28.6 -23.76,28.6 -14.08,0 -22.88,-11 -22.88,-29.04 0,-18.04 8.58,-29.48 22.44,-29.48 z"
       id="path35" />
    <path
       d="m 354.49989,517.88 h -33 V 550 h 33 z m 0,-82.28 h -33 v 32.12 h 33 z"
       id="path37" />
    <path
       d="m 474.73993,489.94 h -16.28 v -95.92 h -36.3 l -56.98,95.48 v 25.96 h 62.48 V 550 h 30.8 v -34.54 h 16.28 z m -47.08,0 h -40.7 l 40.7,-66.66 z"
       id="path39" />
    <path
       d="m 584.85988,522.5 h -66.22 c 4.18,-8.36 9.02,-12.98 31.9,-29.48 27.06,-19.8 34.98,-31.46 34.98,-52.8 0,-30.14 -20.9,-49.5 -53.46,-49.5 -32.34,0 -51.26,19.14 -51.26,52.14 v 5.5 h 29.7 v -5.06 c 0,-17.38 8.14,-27.5 22.22,-27.5 13.64,0 22,9.46 22,25.08 0,17.38 -5.28,23.76 -40.04,48.4 -26.4,18.04 -34.54,31.68 -35.86,60.72 h 106.04 z"
       id="path41" />
  </g>
  <g
     aria-label="52.5200 N / 13.4050 E"
     id="text12"
     style="font-size:24px;font-family:'Nimbus Mono PS';letter-spacing:0;opacity:1;fill:#bdbdb7">
    <path
       d="m 76.704,636.752 h 5.664 c 0.528,0 0.792,-0.216 0.792,-0.624 0,-0.384 -0.264,-0.6 -0.792,-0.6 h -6.912 v 6.456 c 0,0.384 0.24,0.648 0.6,0.648 0.144,0 0.264,-0.048 0.576,-0.192 1.056,-0.528 2.016,-0.768 2.976,-0.768 1.944,0 3.264,1.392 3.264,3.432 0,2.4 -1.56,4.032 -3.84,4.032 -1.344,0 -2.592,-0.528 -3.744,-1.56 -0.216,-0.192 -0.336,-0.24 -0.504,-0.24 -0.336,0 -0.6,0.264 -0.6,0.6 0,0.36 0.336,0.72 1.176,1.248 1.224,0.792 2.424,1.176 3.72,1.176 2.952,0 5.04,-2.16 5.04,-5.208 0,-2.736 -1.848,-4.704 -4.392,-4.704 -1.032,0 -1.848,0.192 -3.024,0.648 z"
       id="path44" />
    <path
       d="m 89.640009,648.776 c 1.296,-1.104 2.784,-2.472 4.776,-4.392 3.024,-2.88 3.504,-3.576 3.504,-4.992 0,-2.232 -2.136,-4.176 -4.56,-4.176 -1.488,0 -2.88,0.672 -3.792,1.824 -0.48,0.6 -0.792,1.32 -0.792,1.776 0,0.288 0.264,0.552 0.6,0.552 0.312,0 0.504,-0.168 0.6,-0.552 0.408,-1.392 1.824,-2.376 3.384,-2.376 1.776,0 3.312,1.368 3.312,2.928 0,1.032 -0.432,1.632 -2.664,3.792 -1.992,1.896 -3.816,3.576 -5.496,5.04 l -0.216,0.192 V 650 h 9.72 v -1.944 c 0,-0.504 -0.216,-0.768 -0.624,-0.768 -0.408,0 -0.624,0.264 -0.624,0.768 v 0.72 z"
       id="path46" />
    <path
       d="m 107.88002,647.024 c -1.008,0 -1.776,0.72 -1.776,1.656 0,0.936 0.768,1.68 1.776,1.68 h 0.264 c 1.008,0 1.776,-0.72 1.776,-1.68 0,-0.936 -0.768,-1.656 -1.776,-1.656 z"
       id="path48" />
    <path
       d="m 119.90403,636.752 h 5.664 c 0.528,0 0.792,-0.216 0.792,-0.624 0,-0.384 -0.264,-0.6 -0.792,-0.6 h -6.912 v 6.456 c 0,0.384 0.24,0.648 0.6,0.648 0.144,0 0.264,-0.048 0.576,-0.192 1.056,-0.528 2.016,-0.768 2.976,-0.768 1.944,0 3.264,1.392 3.264,3.432 0,2.4 -1.56,4.032 -3.84,4.032 -1.344,0 -2.592,-0.528 -3.744,-1.56 -0.216,-0.192 -0.336,-0.24 -0.504,-0.24 -0.336,0 -0.6,0.264 -0.6,0.6 0,0.36 0.336,0.72 1.176,1.248 1.224,0.792 2.424,1.176 3.72,1.176 2.952,0 5.04,-2.16 5.04,-5.208 0,-2.736 -1.848,-4.704 -4.392,-4.704 -1.032,0 -1.848,0.192 -3.024,0.648 z"
       id="path50" />
    <path
       d="m 132.84004,648.776 c 1.296,-1.104 2.784,-2.472 4.776,-4.392 3.024,-2.88 3.504,-3.576 3.504,-4.992 0,-2.232 -2.136,-4.176 -4.56,-4.176 -1.488,0 -2.88,0.672 -3.792,1.824 -0.48,0.6 -0.792,1.32 -0.792,1.776 0,0.288 0.264,0.552 0.6,0.552 0.312,0 0.504,-0.168 0.6,-0.552 0.408,-1.392 1.824,-2.376 3.384,-2.376 1.776,0 3.312,1.368 3.312,2.928 0,1.032 -0.432,1.632 -2.664,3.792 -1.992,1.896 -3.816,3.576 -5.496,5.04 l -0.216,0.192 V 650 h 9.72 v -1.944 c 0,-0.504 -0.216,-0.768 -0.624,-0.768 -0.408,0 -0.624,0.264 -0.624,0.768 v 0.72 z"
       id="path52" />
    <path
       d="m 155.83205,641.6 c 0,-3.792 -1.872,-6.384 -4.608,-6.384 -2.76,0 -4.632,2.592 -4.632,6.384 v 2.352 c 0,3.816 1.872,6.408 4.632,6.408 2.736,0 4.608,-2.592 4.608,-6.408 z m -7.992,0.144 c 0,-1.488 0.432,-3.048 1.128,-4.128 0.504,-0.768 1.272,-1.176 2.256,-1.176 0.96,0 1.728,0.408 2.232,1.176 0.696,1.08 1.128,2.64 1.128,4.128 v 2.088 c 0,1.464 -0.432,3.048 -1.128,4.128 -0.504,0.768 -1.296,1.176 -2.232,1.176 -0.96,0 -1.752,-0.408 -2.256,-1.176 -0.696,-1.08 -1.128,-2.664 -1.128,-4.128 z"
       id="path54" />
    <path
       d="m 170.23205,641.6 c 0,-3.792 -1.872,-6.384 -4.608,-6.384 -2.76,0 -4.632,2.592 -4.632,6.384 v 2.352 c 0,3.816 1.872,6.408 4.632,6.408 2.736,0 4.608,-2.592 4.608,-6.408 z m -7.992,0.144 c 0,-1.488 0.432,-3.048 1.128,-4.128 0.504,-0.768 1.272,-1.176 2.256,-1.176 0.96,0 1.728,0.408 2.232,1.176 0.696,1.08 1.128,2.64 1.128,4.128 v 2.088 c 0,1.464 -0.432,3.048 -1.128,4.128 -0.504,0.768 -1.296,1.176 -2.232,1.176 -0.96,0 -1.752,-0.408 -2.256,-1.176 -0.696,-1.08 -1.128,-2.664 -1.128,-4.128 z"
       id="path56" />
    <path
       d="m 199.36807,650 v -12.288 h 0.696 c 0.504,0 0.768,-0.216 0.768,-0.624 0,-0.408 -0.264,-0.6 -0.768,-0.6 h -3.6 c -0.528,0 -0.792,0.192 -0.792,0.6 0,0.408 0.288,0.624 0.792,0.624 h 1.656 v 10.32 l -7.104,-11.544 h -2.64 c -0.504,0 -0.768,0.192 -0.768,0.6 0,0.408 0.264,0.624 0.768,0.624 h 1.176 v 11.064 h -0.696 c -0.504,0 -0.768,0.216 -0.768,0.6 0,0.408 0.288,0.624 0.768,0.624 h 3.6 c 0.504,0 0.792,-0.216 0.792,-0.624 0,-0.384 -0.264,-0.6 -0.792,-0.6 h -1.656 v -10.32 l 7.104,11.544 z"
       id="path58" />
    <path
       d="m 227.68809,635.024 c 0.12,-0.24 0.144,-0.288 0.144,-0.408 0,-0.312 -0.288,-0.576 -0.624,-0.576 -0.288,0 -0.456,0.12 -0.624,0.48 l -7.872,16.392 c -0.096,0.192 -0.12,0.288 -0.12,0.408 0,0.312 0.288,0.576 0.624,0.576 0.288,0 0.456,-0.12 0.624,-0.48 z"
       id="path60" />
    <path
       d="m 252.64811,635.288 -4.608,1.44 c -0.456,0.144 -0.6,0.288 -0.6,0.624 0,0.312 0.288,0.6 0.576,0.6 0.048,0 0.288,-0.048 0.384,-0.072 l 3,-0.936 v 11.832 h -3.216 c -0.528,0 -0.792,0.216 -0.792,0.6 0,0.408 0.288,0.624 0.792,0.624 h 7.68 c 0.504,0 0.768,-0.216 0.768,-0.624 0,-0.384 -0.264,-0.6 -0.768,-0.6 h -3.216 z"
       id="path62" />
    <path
       d="m 265.89612,641.432 c -0.504,0 -0.768,0.24 -0.768,0.624 0,0.384 0.264,0.6 0.768,0.6 2.304,0.048 4.152,1.488 4.152,3.288 0,1.728 -1.752,3.192 -3.864,3.192 -1.344,0 -2.568,-0.432 -3.72,-1.272 -0.216,-0.144 -0.336,-0.192 -0.504,-0.192 -0.312,0 -0.576,0.264 -0.576,0.576 0,0.384 0.312,0.696 1.176,1.128 1.248,0.672 2.376,0.984 3.6,0.984 2.832,0 5.136,-1.992 5.136,-4.416 0,-1.56 -1.104,-3.048 -2.784,-3.792 1.464,-0.696 2.28,-1.824 2.28,-3.168 0,-2.136 -1.896,-3.768 -4.368,-3.768 -1.272,0 -2.496,0.384 -3.456,1.104 -0.552,0.432 -0.888,0.84 -0.888,1.128 0,0.312 0.264,0.576 0.6,0.576 0.192,0 0.336,-0.072 0.456,-0.216 0.864,-0.96 1.848,-1.368 3.288,-1.368 1.776,0 3.12,1.104 3.12,2.544 0,0.768 -0.432,1.512 -1.128,1.968 -0.576,0.36 -1.056,0.48 -1.992,0.48 z"
       id="path64" />
    <path
       d="m 280.68013,647.024 c -1.008,0 -1.776,0.72 -1.776,1.656 0,0.936 0.768,1.68 1.776,1.68 h 0.264 c 1.008,0 1.776,-0.72 1.776,-1.68 0,-0.936 -0.768,-1.656 -1.776,-1.656 z"
       id="path66" />
    <path
       d="m 296.90414,646.016 v 2.76 h -1.704 c -0.504,0 -0.768,0.216 -0.768,0.6 0,0.408 0.288,0.624 0.768,0.624 h 3.648 c 0.48,0 0.768,-0.216 0.768,-0.624 0,-0.384 -0.264,-0.6 -0.768,-0.6 h -0.696 v -2.76 h 0.696 c 0.504,0 0.768,-0.216 0.768,-0.624 0,-0.384 -0.264,-0.6 -0.768,-0.6 h -0.696 v -9.264 h -2.232 l -5.52,9.216 v 1.272 z m 0,-1.224 h -5.208 l 4.848,-8.04 h 0.36 z"
       id="path68" />
    <path
       d="m 314.23215,641.6 c 0,-3.792 -1.872,-6.384 -4.608,-6.384 -2.76,0 -4.632,2.592 -4.632,6.384 v 2.352 c 0,3.816 1.872,6.408 4.632,6.408 2.736,0 4.608,-2.592 4.608,-6.408 z m -7.992,0.144 c 0,-1.488 0.432,-3.048 1.128,-4.128 0.504,-0.768 1.272,-1.176 2.256,-1.176 0.96,0 1.728,0.408 2.232,1.176 0.696,1.08 1.128,2.64 1.128,4.128 v 2.088 c 0,1.464 -0.432,3.048 -1.128,4.128 -0.504,0.768 -1.296,1.176 -2.232,1.176 -0.96,0 -1.752,-0.408 -2.256,-1.176 -0.696,-1.08 -1.128,-2.664 -1.128,-4.128 z"
       id="path70" />
    <path
       d="m 321.50416,636.752 h 5.664 c 0.528,0 0.792,-0.216 0.792,-0.624 0,-0.384 -0.264,-0.6 -0.792,-0.6 h -6.912 v 6.456 c 0,0.384 0.24,0.648 0.6,0.648 0.144,0 0.264,-0.048 0.576,-0.192 1.056,-0.528 2.016,-0.768 2.976,-0.768 1.944,0 3.264,1.392 3.264,3.432 0,2.4 -1.56,4.032 -3.84,4.032 -1.344,0 -2.592,-0.528 -3.744,-1.56 -0.216,-0.192 -0.336,-0.24 -0.504,-0.24 -0.336,0 -0.6,0.264 -0.6,0.6 0,0.36 0.336,0.72 1.176,1.248 1.224,0.792 2.424,1.176 3.72,1.176 2.952,0 5.04,-2.16 5.04,-5.208 0,-2.736 -1.848,-4.704 -4.392,-4.704 -1.032,0 -1.848,0.192 -3.024,0.648 z"
       id="path72" />
    <path
       d="m 343.03216,641.6 c 0,-3.792 -1.872,-6.384 -4.608,-6.384 -2.76,0 -4.632,2.592 -4.632,6.384 v 2.352 c 0,3.816 1.872,6.408 4.632,6.408 2.736,0 4.608,-2.592 4.608,-6.408 z m -7.992,0.144 c 0,-1.488 0.432,-3.048 1.128,-4.128 0.504,-0.768 1.272,-1.176 2.256,-1.176 0.96,0 1.728,0.408 2.232,1.176 0.696,1.08 1.128,2.64 1.128,4.128 v 2.088 c 0,1.464 -0.432,3.048 -1.128,4.128 -0.504,0.768 -1.296,1.176 -2.232,1.176 -0.96,0 -1.752,-0.408 -2.256,-1.176 -0.696,-1.08 -1.128,-2.664 -1.128,-4.128 z"
       id="path74" />
    <path
       d="m 364.10418,643.616 h 3.216 v 0.936 c 0,0.48 0.216,0.744 0.624,0.744 0.408,0 0.624,-0.24 0.624,-0.744 v -3.096 c 0,-0.504 -0.216,-0.768 -0.624,-0.768 -0.408,0 -0.624,0.264 -0.624,0.768 v 0.936 h -3.216 v -4.68 h 6.768 v 2.184 c 0,0.504 0.216,0.768 0.624,0.768 0.408,0 0.624,-0.264 0.624,-0.768 v -3.408 h -10.44 c -0.504,0 -0.768,0.192 -0.768,0.6 0,0.408 0.264,0.624 0.768,0.624 h 1.176 v 11.064 h -1.176 c -0.504,0 -0.768,0.216 -0.768,0.6 0,0.408 0.264,0.624 0.768,0.624 h 10.944 v -3.888 c 0,-0.504 -0.216,-0.768 -0.624,-0.768 -0.408,0 -0.624,0.264 -0.624,0.768 v 2.664 h -7.272 z"
       id="path76" />
  </g>
  <g
     aria-label="BERLIN × KAWE / DATA"
     id="text14"
     style="font-size:18px;font-family:'Nimbus Mono PS';letter-spacing:0;opacity:1;fill:#ffffff">
    <path
       d="M 74.142,999.082 H 73.26 c -0.378,0 -0.576,0.162 -0.576,0.45 0,0.306 0.198,0.468 0.576,0.468 h 5.526 c 1.692,0 3.06,-1.26 3.06,-2.808 0,-1.152 -0.738,-2.034 -2.142,-2.556 0.936,-0.558 1.386,-1.224 1.386,-2.106 0,-1.512 -1.368,-2.664 -3.168,-2.664 H 73.26 c -0.378,0 -0.576,0.144 -0.576,0.45 0,0.306 0.198,0.468 0.576,0.468 h 0.882 z m 0.936,-4.788 v -3.51 h 2.862 c 1.242,0 2.214,0.756 2.214,1.728 0,1.044 -1.044,1.782 -2.52,1.782 z m 0,4.788 v -3.87 h 2.592 c 1.08,0 1.656,0.108 2.214,0.432 0.648,0.378 1.026,0.954 1.026,1.566 0,1.044 -0.954,1.872 -2.178,1.872 z"
       id="path79" />
    <path
       d="m 85.878007,995.212 h 2.412 v 0.702 c 0,0.36 0.162,0.558 0.468,0.558 0.306,0 0.468,-0.18 0.468,-0.558 v -2.322 c 0,-0.378 -0.162,-0.576 -0.468,-0.576 -0.306,0 -0.468,0.198 -0.468,0.576 v 0.702 h -2.412 v -3.51 h 5.076 v 1.638 c 0,0.378 0.162,0.576 0.468,0.576 0.306,0 0.468,-0.198 0.468,-0.576 v -2.556 h -7.83 c -0.378,0 -0.576,0.144 -0.576,0.45 0,0.306 0.198,0.468 0.576,0.468 h 0.882 v 8.298 h -0.882 c -0.378,0 -0.576,0.162 -0.576,0.45 0,0.306 0.198,0.468 0.576,0.468 h 8.208 v -2.916 c 0,-0.378 -0.162,-0.576 -0.468,-0.576 -0.306,0 -0.468,0.198 -0.468,0.576 v 1.998 h -5.454 z"
       id="path81" />
    <path
       d="m 96.678014,995.572 h 2.268 c 1.349996,0.63 2.105996,1.548 3.707996,4.428 h 1.062 c 0.378,0 0.594,-0.162 0.594,-0.468 0,-0.288 -0.198,-0.45 -0.594,-0.45 h -0.486 c -1.386,-2.34 -1.926,-3.06 -2.952,-3.78 1.548,-0.522 2.394,-1.44 2.394,-2.592 0,-1.53 -1.53,-2.844 -3.329996,-2.844 h -4.482 c -0.378,0 -0.576,0.144 -0.576,0.45 0,0.306 0.198,0.468 0.576,0.468 h 0.882 v 8.298 h -0.882 c -0.378,0 -0.576,0.162 -0.576,0.45 0,0.306 0.198,0.468 0.576,0.468 h 3.06 c 0.378,0 0.594,-0.162 0.594,-0.468 0,-0.288 -0.198,-0.45 -0.594,-0.45 h -1.242 z m 0,-0.918 v -3.87 h 2.646 c 1.259996,0 2.411996,0.918 2.411996,1.926 0,1.062 -1.404,1.944 -3.095996,1.944 z"
       id="path83" />
    <path
       d="m 108.59402,990.784 h 1.638 c 0.378,0 0.576,-0.162 0.576,-0.468 0,-0.306 -0.198,-0.45 -0.576,-0.45 h -4.212 c -0.378,0 -0.576,0.144 -0.576,0.45 0,0.306 0.198,0.468 0.576,0.468 h 1.638 v 8.298 h -1.638 c -0.378,0 -0.576,0.162 -0.576,0.45 0,0.306 0.198,0.468 0.576,0.468 h 8.226 v -3.654 c 0,-0.36 -0.162,-0.558 -0.468,-0.558 -0.306,0 -0.468,0.198 -0.468,0.558 v 2.736 h -4.716 z"
       id="path85" />
    <path
       d="m 121.06803,990.784 h 2.412 c 0.378,0 0.594,-0.162 0.594,-0.468 0,-0.306 -0.198,-0.45 -0.594,-0.45 h -5.76 c -0.378,0 -0.576,0.144 -0.576,0.45 0,0.306 0.198,0.468 0.576,0.468 h 2.412 v 8.298 h -2.412 c -0.378,0 -0.576,0.162 -0.576,0.45 0,0.306 0.198,0.468 0.576,0.468 h 5.76 c 0.378,0 0.594,-0.162 0.594,-0.468 0,-0.288 -0.198,-0.45 -0.594,-0.45 h -2.412 z"
       id="path87" />
    <path
       d="m 135.12603,1000 v -9.216 h 0.522 c 0.378,0 0.576,-0.162 0.576,-0.468 0,-0.306 -0.198,-0.45 -0.576,-0.45 h -2.7 c -0.396,0 -0.594,0.144 -0.594,0.45 0,0.306 0.216,0.468 0.594,0.468 h 1.242 v 7.74 l -5.328,-8.658 h -1.98 c -0.378,0 -0.576,0.144 -0.576,0.45 0,0.306 0.198,0.468 0.576,0.468 h 0.882 v 8.298 h -0.522 c -0.378,0 -0.576,0.162 -0.576,0.45 0,0.306 0.216,0.468 0.576,0.468 h 2.7 c 0.378,0 0.594,-0.162 0.594,-0.468 0,-0.288 -0.198,-0.45 -0.594,-0.45 h -1.242 v -7.74 l 5.328,8.658 z"
       id="path89" />
    <path
       d="m 153.00005,994.294 -2.484,-2.448 c -0.162,-0.144 -0.288,-0.216 -0.414,-0.216 -0.252,0 -0.468,0.198 -0.468,0.45 0,0.144 0.054,0.252 0.216,0.414 l 2.502,2.43 -2.502,2.448 c -0.162,0.162 -0.216,0.27 -0.216,0.414 0,0.252 0.198,0.45 0.468,0.45 0.144,0 0.252,-0.054 0.414,-0.216 l 2.484,-2.448 2.502,2.448 c 0.162,0.162 0.252,0.216 0.396,0.216 0.27,0 0.468,-0.198 0.468,-0.45 0,-0.144 -0.054,-0.27 -0.216,-0.414 l -2.484,-2.448 2.484,-2.43 c 0.144,-0.144 0.216,-0.27 0.216,-0.396 0,-0.27 -0.216,-0.468 -0.468,-0.468 -0.126,0 -0.234,0.054 -0.396,0.216 z"
       id="path91" />
    <path
       d="m 172.27806,996.04 1.386,-1.206 c 1.656,0.54 2.412,1.584 3.726,5.166 h 1.62 c 0.396,0 0.594,-0.162 0.594,-0.468 0,-0.288 -0.198,-0.45 -0.594,-0.45 h -0.936 c -1.296,-3.294 -1.98,-4.212 -3.636,-4.932 l 3.852,-3.366 h 0.252 c 0.396,0 0.594,-0.162 0.594,-0.468 0,-0.306 -0.198,-0.45 -0.594,-0.45 h -2.142 c -0.396,0 -0.594,0.144 -0.594,0.45 0,0.306 0.198,0.468 0.594,0.468 h 0.576 l -4.698,4.104 v -4.104 h 1.242 c 0.378,0 0.594,-0.162 0.594,-0.468 0,-0.306 -0.198,-0.45 -0.594,-0.45 h -3.06 c -0.378,0 -0.576,0.144 -0.576,0.45 0,0.306 0.198,0.468 0.576,0.468 h 0.882 v 8.298 h -0.882 c -0.378,0 -0.576,0.162 -0.576,0.45 0,0.306 0.198,0.468 0.576,0.468 h 3.06 c 0.378,0 0.594,-0.162 0.594,-0.468 0,-0.288 -0.198,-0.45 -0.594,-0.45 h -1.242 z"
       id="path93" />
    <path
       d="m 187.65007,996.688 0.918,2.394 h -1.224 c -0.378,0 -0.576,0.162 -0.576,0.45 0,0.306 0.198,0.468 0.576,0.468 h 2.808 c 0.378,0 0.594,-0.162 0.594,-0.468 0,-0.288 -0.198,-0.45 -0.594,-0.45 h -0.594 l -3.546,-9.216 h -3.726 c -0.396,0 -0.594,0.144 -0.594,0.45 0,0.306 0.216,0.468 0.594,0.468 h 1.998 l -3.132,8.298 h -0.504 c -0.378,0 -0.576,0.162 -0.576,0.45 0,0.306 0.216,0.468 0.576,0.468 h 2.718 c 0.378,0 0.594,-0.162 0.594,-0.468 0,-0.288 -0.198,-0.45 -0.594,-0.45 h -1.278 l 0.9,-2.394 z m -0.36,-0.918 h -3.942 l 1.872,-4.986 h 0.144 z"
       id="path95" />
    <path
       d="m 192.90608,1000 h 1.314 l 1.98,-6.804 1.944,6.804 h 1.314 l 1.116,-9.216 h 0.18 c 0.378,0 0.594,-0.162 0.594,-0.468 0,-0.306 -0.198,-0.45 -0.594,-0.45 h -2.7 c -0.378,0 -0.576,0.144 -0.576,0.45 0,0.306 0.198,0.468 0.576,0.468 h 1.62 l -0.954,7.812 -1.854,-6.516 h -1.26 l -1.908,6.534 -0.936,-7.83 h 1.584 c 0.378,0 0.594,-0.162 0.594,-0.468 0,-0.306 -0.198,-0.45 -0.594,-0.45 h -2.7 c -0.378,0 -0.576,0.144 -0.576,0.45 0,0.306 0.198,0.468 0.576,0.468 h 0.198 z"
       id="path97" />
    <path
       d="m 204.67808,995.212 h 2.412 v 0.702 c 0,0.36 0.162,0.558 0.468,0.558 0.306,0 0.468,-0.18 0.468,-0.558 v -2.322 c 0,-0.378 -0.162,-0.576 -0.468,-0.576 -0.306,0 -0.468,0.198 -0.468,0.576 v 0.702 h -2.412 v -3.51 h 5.076 v 1.638 c 0,0.378 0.162,0.576 0.468,0.576 0.306,0 0.468,-0.198 0.468,-0.576 v -2.556 h -7.83 c -0.378,0 -0.576,0.144 -0.576,0.45 0,0.306 0.198,0.468 0.576,0.468 h 0.882 v 8.298 h -0.882 c -0.378,0 -0.576,0.162 -0.576,0.45 0,0.306 0.198,0.468 0.576,0.468 h 8.208 v -2.916 c 0,-0.378 -0.162,-0.576 -0.468,-0.576 -0.306,0 -0.468,0.198 -0.468,0.576 v 1.998 h -5.454 z"
       id="path99" />
    <path
       d="m 231.9661,988.768 c 0.09,-0.18 0.108,-0.216 0.108,-0.306 0,-0.234 -0.216,-0.432 -0.468,-0.432 -0.216,0 -0.342,0.09 -0.468,0.36 l -5.904,12.294 c -0.072,0.144 -0.09,0.216 -0.09,0.306 0,0.234 0.216,0.432 0.468,0.432 0.216,0 0.342,-0.09 0.468,-0.36 z"
       id="path101" />
    <path
       d="m 246.58211,999.082 h -0.522 c -0.378,0 -0.576,0.162 -0.576,0.45 0,0.306 0.198,0.468 0.576,0.468 h 3.978 c 2.34,0.018 4.212,-1.998 4.23,-4.572 v -0.99 c -0.018,-2.574 -1.89,-4.59 -4.23,-4.572 h -3.978 c -0.378,0 -0.576,0.144 -0.576,0.45 0,0.306 0.198,0.468 0.576,0.468 h 0.522 z m 0.936,0 v -8.298 h 2.484 c 1.71,-0.126 3.24,1.494 3.33,3.492 v 1.296 c -0.036,1.872 -1.584,3.546 -3.222,3.51 z"
       id="path103" />
    <path
       d="m 263.25011,996.688 0.918,2.394 h -1.224 c -0.378,0 -0.576,0.162 -0.576,0.45 0,0.306 0.198,0.468 0.576,0.468 h 2.808 c 0.378,0 0.594,-0.162 0.594,-0.468 0,-0.288 -0.198,-0.45 -0.594,-0.45 h -0.594 l -3.546,-9.216 h -3.726 c -0.396,0 -0.594,0.144 -0.594,0.45 0,0.306 0.216,0.468 0.594,0.468 h 1.998 l -3.132,8.298 h -0.504 c -0.378,0 -0.576,0.162 -0.576,0.45 0,0.306 0.216,0.468 0.576,0.468 h 2.718 c 0.378,0 0.594,-0.162 0.594,-0.468 0,-0.288 -0.198,-0.45 -0.594,-0.45 h -1.278 l 0.9,-2.394 z m -0.36,-0.918 h -3.942 l 1.872,-4.986 h 0.144 z"
       id="path105" />
    <path
       d="m 272.28612,999.082 v -8.298 h 2.79 v 1.188 c 0,0.342 0.198,0.594 0.486,0.594 0.306,0 0.45,-0.18 0.45,-0.594 v -2.106 h -8.406 v 2.106 c 0,0.396 0.162,0.594 0.468,0.594 0.306,0 0.468,-0.198 0.468,-0.594 v -1.188 h 2.808 v 8.298 h -1.782 c -0.396,0 -0.594,0.162 -0.594,0.45 0,0.306 0.216,0.468 0.594,0.468 h 4.5 c 0.378,0 0.594,-0.162 0.594,-0.468 0,-0.288 -0.198,-0.45 -0.594,-0.45 z"
       id="path107" />
    <path
       d="m 284.85013,996.688 0.918,2.394 h -1.224 c -0.378,0 -0.576,0.162 -0.576,0.45 0,0.306 0.198,0.468 0.576,0.468 h 2.808 c 0.378,0 0.594,-0.162 0.594,-0.468 0,-0.288 -0.198,-0.45 -0.594,-0.45 h -0.594 l -3.546,-9.216 h -3.726 c -0.396,0 -0.594,0.144 -0.594,0.45 0,0.306 0.216,0.468 0.594,0.468 h 1.998 l -3.132,8.298 h -0.504 c -0.378,0 -0.576,0.162 -0.576,0.45 0,0.306 0.216,0.468 0.576,0.468 h 2.718 c 0.378,0 0.594,-0.162 0.594,-0.468 0,-0.288 -0.198,-0.45 -0.594,-0.45 h -1.278 l 0.9,-2.394 z m -0.36,-0.918 h -3.942 l 1.872,-4.986 h 0.144 z"
       id="path109" />
  </g>
</svg>
